# ProBuilder 4.1.0
# https://unity3d.com/unity/features/worldbuilding/probuilder
# 2019-12-30 2:44:59 AM

mtllib ./Agressive.mtl
o Agressive

g Cube
v 0 -5 19.0003
v -4 -5 19.0003
v 0 -4 19.0003
v -4 -4 19.0003
v -4 0 2
v -4 0 -3
v -4 1 2
v -4 1 -3
v 0 0 -3
v 0 1 -3
v 0 0 2
v 0 1 2
v 0 -5 12.0001
v -4 -5 12.0001
v 0 -4 12.0001
v -4 -4 12.0001
v 0 -5 14.0002
v -4 -5 14.0002
v 0 -4 14.0002
v -4 -4 14.0002
v 17.0002 -4 14.0002
v 17.0002 -5 14.0002
v 17.0002 -4 19.0003
v 17.0002 -5 19.0003
v 12.0001 -4 14.0002
v 12.0001 -5 14.0002
v 12.0001 -4 19.0003
v 12.0001 -5 19.0003
v 12.0001 -4 -3
v 12.0001 -5 -3
v 17.0002 -4 -3
v 17.0002 -5 -3
v 12.0001 -4 2.000099
v 12.0001 -5 2.000099
v 17.0002 -4 2.000099
v 17.0002 -5 2.000099
v -14.0001 -4 2.000099
v -14.0001 -5 2.000099
v -14.0001 -4 -3
v -14.0001 -5 -3
v -9.999999 -4 2.000099
v -9.999999 -5 2.000099
v -9.999999 -4 -3
v -9.999999 -5 -3
v -9.999999 -10 -13.0001
v -9.999999 -9 -13.0001
v -14.0001 -10 -13.0001
v -14.0001 -9 -13.0001

vt 0 -5
vt -4 -5
vt 0 -4
vt -4 -4
vt 2 0
vt -3 0
vt 2 1
vt -3 1
vt 4 0
vt 0 0
vt 4 1
vt 0 1
vt 3 0
vt -2 0
vt 3 1
vt -2 1
vt 0 2
vt 4 2
vt 0 -3
vt 4 -3
vt -4 -3
vt -4 2
vt 0 1.788858
vt -4 1.788858
vt 0 12.96929
vt -4 12.96929
vt -12.0001 -4
vt -12.0001 -5
vt 12.0001 -5
vt 12.0001 -4
vt 4 1.341648
vt 0 1.341648
vt 4 12.52208
vt 0 12.52208
vt 0 12.0001
vt -4 12.0001
vt 0 14.0002
vt -4 14.0002
vt -14.0002 -4
vt -14.0002 -5
vt 14.0002 -5
vt 14.0002 -4
vt 4 12.0001
vt 4 14.0002
vt 0 19.0003
vt -4 19.0003
vt -19.0003 -4
vt -19.0003 -5
vt 19.0003 -5
vt 19.0003 -4
vt 4 19.0003
vt -12.0001 19.0003
vt -12.0001 14.0002
vt 12.0001 14.0002
vt 12.0001 19.0003
vt -17.0002 -4
vt -17.0002 -5
vt -17.0002 19.0003
vt -17.0002 14.0002
vt 17.0002 14.0002
vt 17.0002 19.0003
vt 17.0002 -5
vt 17.0002 -4
vt 2.000099 -4
vt 2.000099 -5
vt -17.0002 2.000099
vt -12.0001 2.000099
vt 12.0001 2.000099
vt 17.0002 2.000099
vt -2.000099 -5
vt -2.000099 -4
vt -3 -4
vt -3 -5
vt -17.0002 -3
vt -12.0001 -3
vt 12.0001 -3
vt 17.0002 -3
vt 3 -5
vt 3 -4
vt -9.999999 -4
vt -9.999999 -5
vt 9.999999 -3
vt 9.999999 2.000099
vt -9.999999 2.000099
vt -9.999999 -3
vt 9.999999 -5
vt 9.999999 -4
vt 14.0001 -3
vt 14.0001 2.000099
vt -14.0001 2.000099
vt -14.0001 -3
vt 9.999999 -10
vt 9.999999 -9
vt 14.0001 -10
vt 14.0001 -9
vt 13.0001 -10
vt 13.0001 -9
vt -14.0001 -4.919337
vt -9.999999 -4.919337
vt -14.0001 -16.09977
vt -9.999999 -16.09977
vt 9.999999 -4.472127
vt 14.0001 -4.472127
vt 9.999999 -15.65256
vt 14.0001 -15.65256
vt -13.0001 -9
vt -13.0001 -10

vn 0 0 1
vn -1 0 0
vn 0 0 -1
vn 1 0 0
vn 0 1 0
vn 0 -1 0
vn 0 -0.894429 -0.44721
vn 0 0.894429 0.44721
vn 0 -0.894429 0.44721
vn 0 0.894429 -0.44721

usemtl ProBuilder_Default_HDRP
f 3/3/1 4/4/1 2/2/1 1/1/1
f 7/7/2 8/8/2 6/6/2 5/5/2
f 8/11/3 10/12/3 9/10/3 6/9/3
f 10/15/4 12/16/4 11/14/4 9/13/4
f 10/19/5 8/20/5 7/18/5 12/17/5
f 11/17/6 5/22/6 6/21/6 9/19/6
f 13/25/7 14/26/7 5/24/7 11/23/7
f 15/27/4 13/28/4 11/14/4 12/16/4
f 14/29/2 16/30/2 7/7/2 5/5/2
f 16/33/8 15/34/8 12/32/8 7/31/8
f 17/37/6 18/38/6 14/36/6 13/35/6
f 19/39/4 17/40/4 13/28/4 15/27/4
f 18/41/2 20/42/2 16/30/2 14/29/2
f 20/44/5 19/37/5 15/35/5 16/43/5
f 1/45/6 2/46/6 18/38/6 17/37/6
f 23/47/4 24/48/4 22/40/4 21/39/4
f 2/49/2 4/50/2 20/42/2 18/41/2
f 4/51/5 3/45/5 19/37/5 20/44/5
f 25/27/3 26/28/3 17/1/3 19/3/3
f 27/52/5 25/53/5 19/37/5 3/45/5
f 26/54/6 28/55/6 1/45/6 17/37/6
f 28/29/1 27/30/1 3/3/1 1/1/1
f 31/56/3 32/57/3 30/28/3 29/27/3
f 23/58/5 21/59/5 25/53/5 27/52/5
f 22/60/6 24/61/6 28/55/6 26/54/6
f 24/62/1 23/63/1 27/30/1 28/29/1
f 33/64/2 34/65/2 26/41/2 25/42/2
f 35/66/5 33/67/5 25/53/5 21/59/5
f 34/68/6 36/69/6 22/60/6 26/54/6
f 36/70/4 35/71/4 21/39/4 22/40/4
f 39/72/2 40/73/2 38/65/2 37/64/2
f 31/74/5 29/75/5 33/67/5 35/66/5
f 30/76/6 32/77/6 36/69/6 34/68/6
f 32/78/4 31/79/4 35/71/4 36/70/4
f 41/80/1 42/81/1 34/29/1 33/30/1
f 43/82/5 41/83/5 33/67/5 29/75/5
f 42/84/6 44/85/6 30/76/6 34/68/6
f 44/86/3 43/87/3 29/27/3 30/28/3
f 37/39/1 38/40/1 42/81/1 41/80/1
f 39/88/5 37/89/5 41/83/5 43/82/5
f 38/90/6 40/91/6 44/85/6 42/84/6
f 47/94/3 48/95/3 46/93/3 45/92/3
f 45/96/4 46/97/4 43/79/4 44/78/4
f 47/100/9 45/101/9 44/99/9 40/98/9
f 46/104/10 48/105/10 39/103/10 43/102/10
f 48/106/2 47/107/2 40/73/2 39/72/2

